<mxfile host="app.diagrams.net" agent="Mozilla/5.0 (Windows NT 10.0; Win64; x64) AppleWebKit/537.36 (KHTML, like Gecko) Chrome/134.0.0.0 Safari/537.36 Edg/134.0.0.0" version="26.2.4">
  <diagram id="AOwrJ3HKE57Ekyme98Rb" name="Página-1">
    <mxGraphModel dx="672955" dy="443389" grid="1" gridSize="10" guides="1" tooltips="1" connect="1" arrows="1" fold="1" page="1" pageScale="1" pageWidth="827" pageHeight="1169" math="0" shadow="0">
      <root>
        <mxCell id="0" />
        <mxCell id="1" parent="0" />
        <mxCell id="Bvq5w_urNFzUi2PwKE7C-30" style="edgeStyle=orthogonalEdgeStyle;rounded=0;orthogonalLoop=1;jettySize=auto;html=1;entryX=0.5;entryY=0;entryDx=0;entryDy=0;" edge="1" parent="1" source="2" target="3">
          <mxGeometry relative="1" as="geometry" />
        </mxCell>
        <mxCell id="2" value="Inicio" style="ellipse;whiteSpace=wrap;" parent="1" vertex="1">
          <mxGeometry x="-418940" y="-249220" width="80" height="30" as="geometry" />
        </mxCell>
        <mxCell id="3" value="Usuario inicia sesión" style="shape=rectangle;whiteSpace=wrap;" parent="1" vertex="1">
          <mxGeometry x="-418960" y="-249160" width="120" height="40" as="geometry" />
        </mxCell>
        <mxCell id="Bvq5w_urNFzUi2PwKE7C-34" style="edgeStyle=orthogonalEdgeStyle;rounded=0;orthogonalLoop=1;jettySize=auto;html=1;entryX=0.5;entryY=0;entryDx=0;entryDy=0;" edge="1" parent="1" source="5" target="6">
          <mxGeometry relative="1" as="geometry" />
        </mxCell>
        <mxCell id="5" value="Seleccionar idioma" style="shape=rectangle;whiteSpace=wrap;" parent="1" vertex="1">
          <mxGeometry x="-419080" y="-248970" width="120" height="40" as="geometry" />
        </mxCell>
        <mxCell id="6" value="Verificar país de acceso" style="shape=diamond;whiteSpace=wrap;" parent="1" vertex="1">
          <mxGeometry x="-419100" y="-248890" width="160" height="40" as="geometry" />
        </mxCell>
        <mxCell id="Bvq5w_urNFzUi2PwKE7C-42" style="edgeStyle=orthogonalEdgeStyle;rounded=0;orthogonalLoop=1;jettySize=auto;html=1;entryX=0.5;entryY=0;entryDx=0;entryDy=0;" edge="1" parent="1" source="8" target="Bvq5w_urNFzUi2PwKE7C-41">
          <mxGeometry relative="1" as="geometry" />
        </mxCell>
        <mxCell id="8" value="Mostrar ultima versión de textos legales según pais e idioma registrado" style="shape=rectangle;whiteSpace=wrap;" parent="1" vertex="1">
          <mxGeometry x="-419005" y="-248790" width="155" height="60" as="geometry" />
        </mxCell>
        <mxCell id="Bvq5w_urNFzUi2PwKE7C-44" value="" style="edgeStyle=orthogonalEdgeStyle;rounded=0;orthogonalLoop=1;jettySize=auto;html=1;" edge="1" parent="1" source="10" target="13">
          <mxGeometry relative="1" as="geometry" />
        </mxCell>
        <mxCell id="10" value="Registrar aceptación e historial" style="shape=rectangle;whiteSpace=wrap;" parent="1" vertex="1">
          <mxGeometry x="-418970" y="-248560" width="120" height="40" as="geometry" />
        </mxCell>
        <mxCell id="Bvq5w_urNFzUi2PwKE7C-46" value="" style="edgeStyle=orthogonalEdgeStyle;rounded=0;orthogonalLoop=1;jettySize=auto;html=1;" edge="1" parent="1" source="11" target="13">
          <mxGeometry relative="1" as="geometry" />
        </mxCell>
        <mxCell id="11" value="Permitir acceso a la aplicación" style="shape=rectangle;whiteSpace=wrap;" parent="1" vertex="1">
          <mxGeometry x="-418960" y="-248490" width="120" height="40" as="geometry" />
        </mxCell>
        <mxCell id="Bvq5w_urNFzUi2PwKE7C-48" style="edgeStyle=orthogonalEdgeStyle;rounded=0;orthogonalLoop=1;jettySize=auto;html=1;entryX=0;entryY=0.5;entryDx=0;entryDy=0;" edge="1" parent="1" source="12" target="3">
          <mxGeometry relative="1" as="geometry">
            <mxPoint x="-418980" y="-249140" as="targetPoint" />
            <Array as="points">
              <mxPoint x="-419120" y="-249140" />
            </Array>
          </mxGeometry>
        </mxCell>
        <mxCell id="12" value="Denegar acceso" style="shape=rectangle;whiteSpace=wrap;" parent="1" vertex="1">
          <mxGeometry x="-419190" y="-248720" width="120" height="40" as="geometry" />
        </mxCell>
        <mxCell id="13" value="Fin" style="ellipse;whiteSpace=wrap;" parent="1" vertex="1">
          <mxGeometry x="-418940" y="-248420" width="80" height="40" as="geometry" />
        </mxCell>
        <mxCell id="14" parent="1" source="2" target="3" edge="1" />
        <mxCell id="15" parent="1" source="3" target="4" edge="1" />
        <mxCell id="16" style="edgeStyle=elbowEdgeStyle;elbow=vertical;" parent="1" source="4" target="5" edge="1" />
        <mxCell id="17" style="edgeStyle=elbowEdgeStyle;elbow=vertical;" parent="1" source="4" target="6" edge="1" />
        <mxCell id="18" parent="1" source="6" target="7" edge="1" />
        <mxCell id="19" parent="1" source="7" target="8" edge="1" />
        <mxCell id="20" parent="1" source="8" target="9" edge="1" />
        <mxCell id="21" style="edgeStyle=elbowEdgeStyle;elbow=vertical;" parent="1" source="9" target="10" edge="1" />
        <mxCell id="22" style="edgeStyle=elbowEdgeStyle;elbow=vertical;" parent="1" source="9" target="12" edge="1" />
        <mxCell id="23" parent="1" source="10" target="11" edge="1" />
        <mxCell id="24" parent="1" source="11" target="13" edge="1" />
        <mxCell id="25" parent="1" source="12" target="13" edge="1" />
        <mxCell id="Bvq5w_urNFzUi2PwKE7C-33" style="edgeStyle=orthogonalEdgeStyle;rounded=0;orthogonalLoop=1;jettySize=auto;html=1;entryX=0.5;entryY=0;entryDx=0;entryDy=0;" edge="1" parent="1" source="Bvq5w_urNFzUi2PwKE7C-27" target="Bvq5w_urNFzUi2PwKE7C-38">
          <mxGeometry relative="1" as="geometry">
            <mxPoint x="-418780" y="-248980" as="targetPoint" />
            <Array as="points">
              <mxPoint x="-418790" y="-249057" />
              <mxPoint x="-418790" y="-249010" />
              <mxPoint x="-418820" y="-249010" />
            </Array>
          </mxGeometry>
        </mxCell>
        <mxCell id="Bvq5w_urNFzUi2PwKE7C-37" value="no" style="edgeLabel;html=1;align=center;verticalAlign=middle;resizable=0;points=[];" vertex="1" connectable="0" parent="Bvq5w_urNFzUi2PwKE7C-33">
          <mxGeometry x="-0.5416" y="2" relative="1" as="geometry">
            <mxPoint as="offset" />
          </mxGeometry>
        </mxCell>
        <mxCell id="Bvq5w_urNFzUi2PwKE7C-27" value="¿Usuario nuevo?" style="rhombus;whiteSpace=wrap;html=1;" vertex="1" parent="1">
          <mxGeometry x="-418950" y="-249090" width="110" height="67" as="geometry" />
        </mxCell>
        <mxCell id="Bvq5w_urNFzUi2PwKE7C-31" style="edgeStyle=orthogonalEdgeStyle;rounded=0;orthogonalLoop=1;jettySize=auto;html=1;exitX=0.5;exitY=1;exitDx=0;exitDy=0;entryX=0.502;entryY=-0.04;entryDx=0;entryDy=0;entryPerimeter=0;" edge="1" parent="1" source="3" target="Bvq5w_urNFzUi2PwKE7C-27">
          <mxGeometry relative="1" as="geometry" />
        </mxCell>
        <mxCell id="Bvq5w_urNFzUi2PwKE7C-32" style="edgeStyle=orthogonalEdgeStyle;rounded=0;orthogonalLoop=1;jettySize=auto;html=1;entryX=0.472;entryY=-0.083;entryDx=0;entryDy=0;entryPerimeter=0;" edge="1" parent="1" source="Bvq5w_urNFzUi2PwKE7C-27" target="5">
          <mxGeometry relative="1" as="geometry" />
        </mxCell>
        <mxCell id="Bvq5w_urNFzUi2PwKE7C-35" value="si" style="edgeLabel;html=1;align=center;verticalAlign=middle;resizable=0;points=[];" vertex="1" connectable="0" parent="Bvq5w_urNFzUi2PwKE7C-32">
          <mxGeometry x="-0.7461" relative="1" as="geometry">
            <mxPoint as="offset" />
          </mxGeometry>
        </mxCell>
        <mxCell id="Bvq5w_urNFzUi2PwKE7C-54" style="edgeStyle=orthogonalEdgeStyle;rounded=0;orthogonalLoop=1;jettySize=auto;html=1;entryX=1;entryY=0.5;entryDx=0;entryDy=0;exitX=1;exitY=0.5;exitDx=0;exitDy=0;" edge="1" parent="1" source="Bvq5w_urNFzUi2PwKE7C-38" target="11">
          <mxGeometry relative="1" as="geometry">
            <Array as="points">
              <mxPoint x="-418750" y="-248470" />
            </Array>
          </mxGeometry>
        </mxCell>
        <mxCell id="Bvq5w_urNFzUi2PwKE7C-56" value="no" style="edgeLabel;html=1;align=center;verticalAlign=middle;resizable=0;points=[];" vertex="1" connectable="0" parent="Bvq5w_urNFzUi2PwKE7C-54">
          <mxGeometry x="-0.8455" relative="1" as="geometry">
            <mxPoint as="offset" />
          </mxGeometry>
        </mxCell>
        <mxCell id="Bvq5w_urNFzUi2PwKE7C-38" value="¿Existen nuevas versiones de textos legales?" style="rhombus;whiteSpace=wrap;html=1;" vertex="1" parent="1">
          <mxGeometry x="-418890" y="-248985" width="140" height="70" as="geometry" />
        </mxCell>
        <mxCell id="Bvq5w_urNFzUi2PwKE7C-47" style="edgeStyle=orthogonalEdgeStyle;rounded=0;orthogonalLoop=1;jettySize=auto;html=1;entryX=0.5;entryY=1;entryDx=0;entryDy=0;" edge="1" parent="1" source="Bvq5w_urNFzUi2PwKE7C-41" target="12">
          <mxGeometry relative="1" as="geometry" />
        </mxCell>
        <mxCell id="Bvq5w_urNFzUi2PwKE7C-57" value="no" style="edgeLabel;html=1;align=center;verticalAlign=middle;resizable=0;points=[];" vertex="1" connectable="0" parent="Bvq5w_urNFzUi2PwKE7C-47">
          <mxGeometry x="-0.6094" y="3" relative="1" as="geometry">
            <mxPoint as="offset" />
          </mxGeometry>
        </mxCell>
        <mxCell id="Bvq5w_urNFzUi2PwKE7C-41" value="¿El usuario acepta los textos legales?" style="rhombus;whiteSpace=wrap;html=1;" vertex="1" parent="1">
          <mxGeometry x="-418990" y="-248690" width="150" height="70" as="geometry" />
        </mxCell>
        <mxCell id="Bvq5w_urNFzUi2PwKE7C-52" style="edgeStyle=orthogonalEdgeStyle;rounded=0;orthogonalLoop=1;jettySize=auto;html=1;entryX=0.457;entryY=-0.019;entryDx=0;entryDy=0;entryPerimeter=0;" edge="1" parent="1" source="Bvq5w_urNFzUi2PwKE7C-41" target="10">
          <mxGeometry relative="1" as="geometry" />
        </mxCell>
        <mxCell id="Bvq5w_urNFzUi2PwKE7C-58" value="si" style="edgeLabel;html=1;align=center;verticalAlign=middle;resizable=0;points=[];" vertex="1" connectable="0" parent="Bvq5w_urNFzUi2PwKE7C-52">
          <mxGeometry x="-0.5843" y="-1" relative="1" as="geometry">
            <mxPoint as="offset" />
          </mxGeometry>
        </mxCell>
        <mxCell id="Bvq5w_urNFzUi2PwKE7C-60" style="edgeStyle=orthogonalEdgeStyle;rounded=0;orthogonalLoop=1;jettySize=auto;html=1;entryX=0.719;entryY=-0.049;entryDx=0;entryDy=0;entryPerimeter=0;" edge="1" parent="1" source="Bvq5w_urNFzUi2PwKE7C-38" target="8">
          <mxGeometry relative="1" as="geometry" />
        </mxCell>
        <mxCell id="Bvq5w_urNFzUi2PwKE7C-62" value="si" style="edgeLabel;html=1;align=center;verticalAlign=middle;resizable=0;points=[];" vertex="1" connectable="0" parent="Bvq5w_urNFzUi2PwKE7C-60">
          <mxGeometry x="-0.8323" y="-1" relative="1" as="geometry">
            <mxPoint as="offset" />
          </mxGeometry>
        </mxCell>
        <mxCell id="Bvq5w_urNFzUi2PwKE7C-61" style="edgeStyle=orthogonalEdgeStyle;rounded=0;orthogonalLoop=1;jettySize=auto;html=1;entryX=0.281;entryY=-0.043;entryDx=0;entryDy=0;entryPerimeter=0;" edge="1" parent="1" source="6" target="8">
          <mxGeometry relative="1" as="geometry" />
        </mxCell>
      </root>
    </mxGraphModel>
  </diagram>
</mxfile>
